<svg xmlns="http://www.w3.org/2000/svg" viewBox="0 0 1024 1024">
  <!-- White filled shield (base layer for white border) -->
  <g transform="translate(0,1024) scale(0.1,-0.1)" fill="#ffffff" stroke="none">
    <path d="M5021 8340 c-243 -172 -672 -377 -1086 -520 -346 -119 -1003 -289
-1405 -363 l-125 -23 1 -474 c1 -765 39 -1157 155 -1630 284 -1153 882 -2046
1817 -2715 251 -178 694 -434 747 -430 32 2 296 146 495 269 685 426 1249
1018 1603 1683 261 490 436 1000 527 1538 65 379 83 659 84 1285 l1 474 -125
23 c-402 74 -1059 244 -1405 363 -413 142 -820 336 -1082 517 -51 34 -99 63
-105 62 -7 0 -51 -27 -97 -59z"/>
  </g>

  <!-- Blue shield (outer ring + inner fill with cross cutout) -->
  <g transform="translate(0,1024) scale(0.1,-0.1)" fill="#013ea9" stroke="none">
    <path d="M5021 8340 c-243 -172 -672 -377 -1086 -520 -346 -119 -1003 -289
-1405 -363 l-125 -23 1 -474 c1 -765 39 -1157 155 -1630 284 -1153 882 -2046
1817 -2715 251 -178 694 -434 747 -430 32 2 296 146 495 269 685 426 1249
1018 1603 1683 261 490 436 1000 527 1538 65 379 83 659 84 1285 l1 474 -125
23 c-402 74 -1059 244 -1405 363 -413 142 -820 336 -1082 517 -51 34 -99 63
-105 62 -7 0 -51 -27 -97 -59z m367 -696 c110 -16 186 -36 432 -114 369 -117
884 -254 1205 -320 108 -23 454 -90 461 -90 8 0 4 -601 -6 -760 -44 -720 -187
-1285 -464 -1838 -295 -589 -740 -1099 -1286 -1477 -217 -150 -564 -347 -610
-347 -46 0 -393 197 -610 347 -546 378 -991 888 -1286 1477 -277 553 -420
1118 -464 1838 -10 159 -14 760 -6 760 7 0 353 67 461 90 297 61 943 232 1173
310 420 142 662 172 1000 124z"/>
    <path d="M4920 7503 c-104 -13 -257 -51 -435 -108 -480 -152 -870 -254 -1335
-350 -124 -26 -231 -48 -237 -50 -26 -9 -13 -568 22 -920 53 -534 196 -1033
430 -1495 359 -709 920 -1276 1642 -1662 54 -29 105 -53 113 -53 29 0 341 177
480 273 410 284 700 567 974 947 405 563 658 1251 731 1990 35 352 48 911 23
920 -7 2 -114 24 -238 50 -465 96 -854 198 -1335 350 -296 94 -361 106 -600
110 -110 2 -216 1 -235 -2z m780 -858 l0 -485 479 0 479 0 7 -82 c3 -46 5
-283 3 -528 l-3 -445 -482 -3 -483 -2 0 -790 0 -790 -580 0 -580 0 0 790 0
790 -482 2 -483 3 -3 445 c-2 245 0 482 3 528 l7 82 479 0 479 0 0 485 0 485
580 0 580 0 0 -485z"/>
  </g>

  <!-- Red cross -->
  <g transform="translate(0,1024) scale(0.1,-0.1)" fill="#d01326" stroke="none">
    <path d="M4687 6983 c-4 -3 -7 -222 -7 -485 l0 -478 -480 0 -480 0 0 -390 0
-390 480 0 480 0 0 -810 0 -810 440 0 440 0 0 810 0 810 480 0 480 0 0 390 0
390 -480 0 -480 0 -2 483 -3 482 -431 3 c-237 1 -434 -1 -437 -5z"/>
  </g>
</svg>
